<?xml version="1.0" encoding="iso-8859-1"?>
<!-- Uploaded to: SVG Repo, www.svgrepo.com, Generator: SVG Repo Mixer Tools -->
<svg version="1.1" id="Layer_1" xmlns="http://www.w3.org/2000/svg" xmlns:xlink="http://www.w3.org/1999/xlink" 
	 viewBox="0 0 512 512" xml:space="preserve">
<circle style="fill:#334D5C;" cx="256" cy="256" r="256"/>
<path style="opacity:0.1;enable-background:new    ;" d="M225.445,109.323v18.027h4.373v94.667c0,1.6-1.013,2.933-2.453,3.467
	c-9.76,3.413-18.72,8.48-26.613,14.827c-1.547,1.227-3.84,1.067-5.173-0.48l-10.933-13.333c-1.227-1.493-3.36-1.653-4.8-0.48
	l-15.52,12.8c-1.44,1.173-1.653,3.307-0.48,4.747l14.72,17.867c1.013,1.227,1.12,2.88,0.32,4.213
	c-8.693,14.933-13.333,32.64-12.16,51.467c1.301,21.968,10.688,41.813,25.035,56.891l-0.048,0.053l129.531,129.531
	c88.507-23.259,158.245-92.709,181.968-181.029L289.979,109.323H225.445z"/>
<rect x="225.44" y="109.333" style="fill:#E1E6E9;" width="64.533" height="17.995"/>
<path style="fill:#EBF0F3;" d="M288.08,225.483c-1.472-0.517-2.475-1.877-2.475-3.435v-94.72h-55.776v94.715
	c0,1.563-1.003,2.923-2.48,3.445c-9.728,3.435-18.688,8.48-26.581,14.805c-1.589,1.275-3.877,1.088-5.173-0.485l-10.981-13.328
	c-1.189-1.445-3.323-1.648-4.763-0.459l-15.531,12.789c-1.445,1.189-1.648,3.323-0.464,4.763l14.725,17.883
	c0.981,1.189,1.088,2.848,0.309,4.181c-8.731,14.971-13.333,32.645-12.203,51.477c2.869,47.701,43.413,85.659,91.2,85.568
	c50.283-0.096,91.008-40.885,91.008-91.189C348.907,271.76,323.515,237.989,288.08,225.483z"/>
<g>
	<path style="fill:#E56353;" d="M172.976,297.909c-0.715,4.469-1.115,8.997-1.115,13.568c0,47.339,38.517,85.856,85.861,85.856
		c47.339,0,85.856-38.517,85.856-85.856c0-4.603-0.373-9.136-1.072-13.568H172.976z"/>
	<circle style="fill:#E56353;" cx="227.408" cy="261.813" r="8.811"/>
	<circle style="fill:#E56353;" cx="267.36" cy="218.16" r="3.835"/>
	<circle style="fill:#E56353;" cx="245.173" cy="177.941" r="2.699"/>
	<circle style="fill:#E56353;" cx="263.52" cy="153.499" r="3.728"/>
	<circle style="fill:#E56353;" cx="299.04" cy="282.827" r="5.968"/>
</g>
<g>
	<circle style="fill:#FFFFFF;" cx="204.427" cy="326.027" r="6.304"/>
	<circle style="fill:#FFFFFF;" cx="251.2" cy="311.04" r="3.323"/>
	<circle style="fill:#FFFFFF;" cx="229.707" cy="357.6" r="4.272"/>
	<circle style="fill:#FFFFFF;" cx="313.104" cy="317.013" r="2.683"/>
	<circle style="fill:#FFFFFF;" cx="277.243" cy="350.485" r="2.864"/>
	<circle style="fill:#FFFFFF;" cx="307.712" cy="356.053" r="2.709"/>
</g>
</svg>