<?xml version="1.0" encoding="UTF-8"?>
<svg xmlns="http://www.w3.org/2000/svg" version="1.1" viewBox="0 0 135.53 82.29">
  <defs>
    <style>
      .cls-1 {
        font-family: Krungthep, Krungthep;
        font-size: 175.5px;
      }

      .cls-1, .cls-2, .cls-3, .cls-4 {
        fill: #fff;
      }

      .cls-5 {
        fill: #000;
      }

      .cls-5, .cls-6, .cls-4 {
        stroke-width: 0px;
      }

      .cls-2 {
        font-family: LucidaConsole, 'Lucida Console';
        font-size: 12px;
      }

      .cls-3 {
        font-family: NauSea, 'Nau Sea';
        font-size: 67.76px;
      }

      .cls-6 {
        fill: #00f228;
      }

      .cls-7 {
        display: none;
      }
    </style>
  </defs>
  <g id="Layer_3" data-name="Layer 3" class="cls-7">
    <rect class="cls-5" x="-1.67" y="-1.89" width="138.95" height="85.81"/>
  </g>
  <g id="Layer_1" data-name="Layer 1">
    <text class="cls-3" transform="translate(-169.38 -105.29)"><tspan x="0" y="0">TRE</tspan></text>
    <path class="cls-4" d="M78.98,22.44l-6.48,56.11-18.46.03,6.48-56.11H10.75l2-16.32,118.97-.02-1.99,16.32h-50.76Z"/>
    <path class="cls-4" d="M54.4,28.56l-3.74,31.54h-8.07l8.6,18.48h-17.34l-8.6-18.48h-4.2l-2.31,18.48H3.71s6.05-50.02,6.05-50.02h44.64ZM38.39,41.79h-15.02l-.73,5.37h15.02l.73-5.37Z"/>
    <path class="cls-4" d="M94.28,64.91h30.03l-1.67,13.68h-45.05l6.05-50.02h45.05l-1.41,13.23h-30.03l-.54,4.81h30.03l-1.78,13.5h-30.03l-.64,4.8Z"/>
    <rect class="cls-4" x="-236.3" y="130.53" width="7.02" height="50.63"/>
    <rect class="cls-4" x="-225.87" y="114.05" width="7.7" height="28.56" transform="translate(-93.7 350.35) rotate(90)"/>
    <rect class="cls-4" x="-247.41" y="114.05" width="7.7" height="28.56" transform="translate(-115.23 371.88) rotate(90)"/>
    <rect class="cls-4" x="-222.62" y="155.3" width="13.64" height="16.11" transform="translate(-52.45 379.15) rotate(90)"/>
    <rect class="cls-4" x="-215.43" y="145.67" width="7.68" height="16.11" transform="translate(-423.17 307.45) rotate(180)"/>
    <rect class="cls-4" x="-230.02" y="169.81" width="5.06" height="17.63" transform="translate(-48.86 406.11) rotate(90)"/>
    <rect class="cls-4" x="-240.43" y="170.01" width="5.06" height="17.23" transform="translate(-59.27 416.52) rotate(90)"/>
    <rect class="cls-4" x="-222.43" y="135.94" width="13.25" height="16.11" transform="translate(-71.8 359.8) rotate(90)"/>
    <rect class="cls-4" x="-256.6" y="136.14" width="13.64" height="16.11" transform="translate(-393.98 -105.59) rotate(-90)"/>
    <rect class="cls-4" x="-257.84" y="145.77" width="7.68" height="16.11"/>
    <rect class="cls-4" x="-256.41" y="155.49" width="13.25" height="16.11" transform="translate(-413.33 -86.24) rotate(-90)"/>
    <rect class="cls-4" x="-103.73" y="141.6" width="7.02" height="51.84"/>
    <rect class="cls-4" x="-91.37" y="141.6" width="7.02" height="51.84"/>
    <rect class="cls-4" x="-114.5" y="126.34" width="7.02" height="28.56" transform="translate(29.63 251.6) rotate(90)"/>
    <rect class="cls-4" x="-80.6" y="126.34" width="7.02" height="28.56" transform="translate(63.53 217.71) rotate(90)"/>
    <rect class="cls-4" x="-97.89" y="96.38" width="7.7" height="62.45" transform="translate(33.57 221.65) rotate(90)"/>
    <rect class="cls-4" x="-132.97" y="123.76" width="7.7" height="69.68"/>
    <rect class="cls-4" x="-62.81" y="123.76" width="7.7" height="69.68"/>
    <rect class="cls-4" x="-77.69" y="167.59" width="13.64" height="16.11" transform="translate(104.78 246.51) rotate(90)"/>
    <rect class="cls-4" x="-70.5" y="157.96" width="7.68" height="16.11" transform="translate(-133.31 332.03) rotate(180)"/>
    <rect class="cls-4" x="-97.06" y="159.2" width="6.04" height="62.45" transform="translate(96.39 284.46) rotate(90)"/>
    <rect class="cls-4" x="-77.5" y="148.24" width="13.25" height="16.11" transform="translate(85.42 227.16) rotate(90)"/>
    <rect class="cls-4" x="-124.03" y="148.43" width="13.64" height="16.11" transform="translate(-273.69 39.28) rotate(-90)"/>
    <rect class="cls-4" x="-125.26" y="158.06" width="7.68" height="16.11"/>
    <rect class="cls-4" x="-123.84" y="167.78" width="13.25" height="16.11" transform="translate(-293.05 58.63) rotate(-90)"/>
    <polygon class="cls-4" points="-222.35 302.16 -229.37 302.16 -236.63 277.92 -229.49 277.92 -229.37 250.32 -222.35 250.32 -222.35 302.16"/>
    <rect class="cls-4" x="-218.01" y="250.32" width="7.02" height="51.84"/>
    <rect class="cls-4" x="-241.14" y="235.05" width="7.02" height="28.56" transform="translate(11.7 486.96) rotate(90)"/>
    <rect class="cls-4" x="-207.25" y="235.05" width="7.02" height="28.56" transform="translate(45.6 453.07) rotate(90)"/>
    <rect class="cls-4" x="-224.53" y="205.1" width="7.7" height="62.45" transform="translate(15.64 457.01) rotate(90)"/>
    <rect class="cls-4" x="-259.61" y="232.48" width="7.7" height="69.68"/>
    <rect class="cls-4" x="-189.45" y="232.48" width="7.7" height="69.68"/>
    <rect class="cls-4" x="-204.33" y="276.3" width="13.64" height="16.11" transform="translate(86.85 481.87) rotate(90)"/>
    <rect class="cls-4" x="-197.14" y="266.67" width="7.68" height="16.11" transform="translate(-386.6 549.46) rotate(180)"/>
    <rect class="cls-4" x="-223.7" y="267.91" width="6.04" height="62.45" transform="translate(78.46 519.82) rotate(90)"/>
    <rect class="cls-4" x="-204.14" y="256.95" width="13.25" height="16.11" transform="translate(67.49 462.52) rotate(90)"/>
    <rect class="cls-4" x="-248.31" y="259.5" width="13.64" height="11.4" transform="translate(-506.69 23.7) rotate(-90)"/>
    <polygon class="cls-4" points="-241.49 277.92 -235.8 296.12 -247.19 296.12 -247.19 277.92 -241.49 277.92"/>
    <rect class="cls-4" x="-131.54" y="34.91" width="21.66" height="21.66"/>
    <rect class="cls-4" x="-131.54" y="10.9" width="21.66" height="21.66"/>
    <rect class="cls-4" x="-131.54" y="-13.1" width="21.66" height="21.66" transform="translate(-122.98 118.44) rotate(90)"/>
    <rect class="cls-4" x="-107.54" y="-13.1" width="21.66" height="21.66" transform="translate(-98.98 94.43) rotate(90)"/>
    <rect class="cls-4" x="-102.07" y="40.37" width="10.74" height="10.74" transform="translate(-50.97 142.45) rotate(90)"/>
    <rect class="cls-4" x="-102.44" y="16" width="11.46" height="11.46" transform="translate(-74.97 118.44) rotate(90)"/>
    <rect class="cls-4" x="-155.55" y="-13.1" width="21.66" height="21.66" transform="translate(-146.99 142.45) rotate(90)"/>
    <text class="cls-1" transform="translate(208.31 18.48)"><tspan x="0" y="0">E</tspan></text>
    <text class="cls-2" transform="translate(-91.97 96.53)"><tspan x="0" y="0">RTE</tspan></text>
  </g>
  <g id="Layer_2" data-name="Layer 2" class="cls-7">
    <line class="cls-6" x1="76.55" y1="81.54" x2="86.44" y2="2.81"/>
  </g>
</svg>